<?xml version="1.0" standalone="no"?>
<!DOCTYPE svg PUBLIC "-//W3C//DTD SVG 20010904//EN"
 "http://www.w3.org/TR/2001/REC-SVG-20010904/DTD/svg10.dtd">
<svg version="1.0" xmlns="http://www.w3.org/2000/svg"
 width="626.000000pt" height="626.000000pt" viewBox="0 0 626.000000 626.000000"
 preserveAspectRatio="xMidYMid meet">

<g transform="translate(0.000000,626.000000) scale(0.100000,-0.100000)"
fill="#000000" stroke="none">
<path d="M2467 5844 c-5 -6 -68 -23 -97 -28 -9 -1 -21 -5 -28 -10 -7 -4 -12
-2 -12 6 0 17 -47 -53 -66 -98 l-15 -35 43 22 c24 12 55 30 70 40 34 24 64 24
95 -1 33 -26 50 -25 110 3 44 20 62 22 228 22 180 0 180 -1 239 -30 81 -41
159 -114 192 -181 15 -30 42 -72 61 -92 25 -28 18 -13 -28 60 -55 86 -86 122
-202 226 -11 9 -23 16 -29 14 -5 -1 -28 10 -52 26 -45 31 -98 46 -112 33 -5
-5 -78 -11 -162 -13 -84 -3 -147 -1 -140 3 7 5 60 9 118 10 95 1 100 2 55 10
-59 11 -261 20 -268 13z m436 -41 c-7 -2 -19 -2 -25 0 -7 3 -2 5 12 5 14 0 19
-2 13 -5z m-538 -33 c3 -6 0 -10 -7 -10 -15 0 -38 19 -38 32 0 10 36 -8 45
-22z m35 14 c0 -8 -4 -12 -10 -9 -5 3 -10 10 -10 16 0 5 5 9 10 9 6 0 10 -7
10 -16z m409 0 c2 -2 -21 -4 -53 -4 -35 0 -55 4 -51 10 5 8 93 3 104 -6z
m-239 -3 c0 -13 -27 -21 -68 -20 l-37 1 33 8 c18 4 36 10 39 14 10 9 33 7 33
-3z m-240 -31 c11 -8 9 -9 -12 -8 -16 1 -28 6 -28 10 0 11 22 10 40 -2z"/>
<path d="M3330 5645 c0 -5 5 -17 10 -25 5 -8 10 -10 10 -5 0 6 -5 17 -10 25
-5 8 -10 11 -10 5z"/>
<path d="M2241 5575 c-42 -48 -39 -54 4 -11 23 24 41 33 52 29 14 -6 13 -9 -8
-27 -56 -49 -106 -157 -111 -239 -1 -20 -4 -12 -8 23 l-7 55 -1 -72 c-2 -82
17 -194 47 -274 45 -118 157 -246 264 -300 47 -25 56 -19 29 18 -54 77 -126
263 -108 281 3 2 19 -12 37 -33 18 -20 49 -45 69 -55 43 -22 172 -50 230 -50
22 0 40 -2 40 -5 0 -26 -46 -87 -83 -108 -48 -29 -147 -114 -147 -127 0 -5
-11 -21 -26 -35 -14 -14 -22 -30 -19 -35 3 -6 1 -10 -4 -10 -17 0 -62 -97 -54
-116 5 -13 3 -15 -7 -9 -10 6 -12 4 -7 -8 3 -9 1 -17 -4 -19 -15 -5 -41 -118
-34 -145 3 -14 2 -22 -3 -19 -15 9 -22 -76 -22 -268 0 -180 19 -476 30 -476 3
0 4 -17 3 -37 -3 -31 -2 -35 7 -20 8 12 8 37 0 90 -48 324 -32 680 41 867 44
114 113 234 157 274 12 10 19 24 15 30 -3 6 -3 8 2 4 4 -4 26 8 48 27 22 19
43 32 46 29 3 -3 -5 -14 -19 -23 -52 -34 -128 -124 -167 -198 -50 -94 -84
-196 -113 -334 -21 -96 -22 -122 -17 -344 4 -155 12 -275 23 -340 19 -112 21
-159 11 -225 -5 -34 -4 -39 3 -20 9 24 9 23 7 -7 -2 -19 1 -29 6 -26 6 4 7 -5
3 -22 -7 -29 20 -129 33 -121 4 3 22 -29 40 -70 27 -64 30 -78 19 -92 -7 -9
-8 -13 -2 -9 14 8 36 -43 70 -163 14 -52 30 -99 34 -105 11 -13 33 -136 26
-142 -3 -3 -10 5 -15 18 -17 43 -11 -4 8 -66 l19 -60 -3 160 c-4 161 -5 182
-24 310 -6 39 -13 88 -16 110 -3 22 -10 175 -15 340 -6 181 -17 365 -30 465
-41 338 -19 548 82 771 26 58 34 68 61 73 17 4 44 18 59 33 25 24 28 25 26 8
-2 -11 0 -21 5 -22 22 -8 49 0 76 22 l30 26 11 -41 c15 -56 45 -69 97 -44 26
13 46 34 63 66 l26 47 13 -30 c17 -39 49 -39 64 1 6 17 21 33 32 36 39 12 55
35 55 82 0 43 9 86 32 161 15 48 11 177 -7 211 -8 16 -32 49 -52 73 -21 25
-51 64 -66 86 -46 66 -65 51 -24 -19 19 -34 20 -43 9 -60 -10 -17 -10 -26 4
-51 20 -39 11 -96 -24 -162 -51 -94 -168 -170 -260 -168 -62 1 -70 1 -122 -3
-25 -2 -31 -1 -15 1 17 2 42 9 58 15 24 9 27 15 27 57 0 28 -10 67 -25 99 -44
94 -125 202 -152 202 -7 0 -48 36 -90 81 -117 122 -248 219 -297 219 -7 0 -28
-16 -45 -35z m224 -2255 c4 -19 36 -106 72 -194 77 -192 103 -271 102 -305 -1
-23 -3 -21 -20 16 -10 23 -20 54 -21 70 -1 32 -26 115 -36 123 -17 12 -122
311 -121 345 0 18 17 -19 24 -55z m4 -120 c0 -10 -3 -8 -9 5 -12 27 -12 43 0
25 5 -8 9 -22 9 -30z m188 -477 c-3 -10 -5 -4 -5 12 0 17 2 24 5 18 2 -7 2
-21 0 -30z"/>
<path d="M2887 5599 c7 -7 15 -10 18 -7 3 3 -2 9 -12 12 -14 6 -15 5 -6 -5z"/>
<path d="M3601 5593 c7 -12 15 -20 18 -17 3 2 -3 12 -13 22 -17 16 -18 16 -5
-5z"/>
<path d="M3630 5553 c0 -6 8 -17 18 -24 16 -13 16 -13 2 6 -8 11 -16 22 -17
24 -2 2 -3 0 -3 -6z"/>
<path d="M3390 5451 c0 -5 5 -13 10 -16 6 -3 10 -2 10 4 0 5 -4 13 -10 16 -5
3 -10 2 -10 -4z"/>
<path d="M2172 5430 c0 -14 2 -19 5 -12 2 6 2 18 0 25 -3 6 -5 1 -5 -13z"/>
<path d="M3735 5430 c10 -11 20 -20 23 -20 3 0 -3 9 -13 20 -10 11 -20 20 -23
20 -3 0 3 -9 13 -20z"/>
<path d="M3767 5372 c3 -12 9 -25 14 -28 14 -8 11 10 -6 32 -13 18 -14 18 -8
-4z"/>
<path d="M3465 5328 c-9 -27 3 -51 62 -121 68 -81 75 -94 132 -252 22 -60 55
-153 74 -205 19 -52 32 -99 29 -105 -4 -5 -5 -19 -4 -30 2 -17 1 -17 -7 -5 -8
11 -11 -2 -11 -48 0 -35 4 -61 8 -58 5 3 9 -20 9 -52 -1 -31 7 -79 16 -105 10
-28 17 -79 17 -125 1 -42 7 -105 14 -140 8 -35 11 -73 8 -85 -3 -12 -1 -18 3
-14 5 4 19 -34 30 -85 22 -91 81 -316 91 -341 2 -7 -2 -21 -9 -32 -13 -17 -17
-8 -40 86 -14 57 -33 131 -42 163 -8 33 -13 66 -11 73 3 7 2 13 -3 13 -8 0
-42 168 -60 295 -6 45 -9 1 -10 -170 -1 -228 13 -518 29 -605 7 -37 2 -71 -26
-185 -66 -273 -83 -403 -65 -500 6 -33 20 -68 30 -79 17 -17 24 -17 68 -7 26
7 74 25 106 40 44 21 56 24 51 12 -3 -9 -13 -41 -21 -71 -21 -74 -12 -260 16
-349 18 -59 19 -67 4 -110 -20 -61 -108 -238 -139 -278 -13 -17 -24 -41 -24
-52 0 -12 -4 -21 -10 -21 -5 0 -10 6 -10 13 0 8 -9 22 -20 32 -11 10 -20 26
-18 34 6 43 -14 91 -52 125 -36 33 -46 36 -98 36 -67 0 -114 -24 -140 -72 -9
-17 -27 -40 -39 -51 -12 -11 -28 -36 -34 -54 -6 -19 -16 -32 -23 -30 -6 3 -38
10 -71 17 -66 13 -115 35 -55 25 19 -4 51 -7 70 -8 33 -2 35 0 33 28 -2 30
-88 209 -185 387 l-53 96 0 -164 c0 -90 -3 -164 -7 -164 -4 0 -22 9 -40 20
-18 11 -40 20 -48 19 -12 0 -12 -2 -1 -6 8 -3 30 -16 49 -29 19 -13 45 -24 58
-24 35 0 84 -68 84 -117 0 -22 -3 -42 -6 -46 -8 -8 -34 3 -34 15 0 22 -34 79
-53 89 -16 9 -15 6 7 -23 37 -50 35 -66 -12 -63 -21 1 -49 7 -62 14 -20 10
-18 7 7 -13 31 -26 31 -27 16 -57 -11 -22 -18 -28 -26 -20 -16 16 -31 13 -17
-4 18 -21 3 -58 -22 -52 -18 5 -19 4 -4 -12 20 -21 20 -35 3 -50 -11 -8 -16
-5 -26 15 -8 18 -17 24 -28 20 -9 -4 -27 1 -40 9 -23 15 -24 15 -15 -2 11 -20
-9 -89 -25 -86 -5 1 -9 -13 -9 -30 0 -55 -27 -134 -44 -130 -10 3 -9 0 3 -7 9
-6 17 -22 17 -35 0 -31 -16 -33 -23 -4 -5 18 -11 21 -36 16 -37 -8 -43 14 -10
37 16 11 17 15 6 18 -11 2 -12 8 -4 28 5 14 9 35 8 47 -1 12 6 26 16 32 10 6
12 11 6 11 -18 0 -16 39 2 46 8 4 12 11 8 17 -15 24 -8 63 15 86 14 13 17 21
9 18 -16 -6 -15 9 2 38 3 6 7 21 9 35 2 13 7 29 12 35 7 8 -6 15 -40 24 -28 7
-53 17 -56 23 -8 13 14 27 46 29 23 0 23 1 5 9 -19 7 -18 9 8 19 16 6 35 18
43 26 13 13 46 19 99 18 6 0 16 6 23 13 15 17 13 17 -64 0 -58 -12 -102 -35
-150 -78 -15 -14 -33 -18 -65 -16 -41 3 -44 1 -45 -24 -1 -26 21 -41 86 -61 9
-3 17 -18 18 -37 2 -28 0 -31 -15 -25 -10 5 -173 12 -363 16 -390 8 -439 13
-625 64 -210 57 -271 78 -358 122 -39 21 -77 37 -83 37 -7 -1 -9 7 -6 20 9 36
-5 13 -27 -44 -24 -63 -26 -74 -9 -64 7 4 8 3 4 -5 -4 -6 -11 -9 -15 -6 -18
11 -99 -285 -107 -390 -7 -99 3 -115 91 -138 155 -38 1198 -267 1315 -287 225
-40 911 -178 1140 -230 124 -28 258 -58 298 -67 l74 -16 -5 -61 c-2 -34 -10
-126 -17 -206 -14 -148 -8 -272 12 -252 5 5 25 108 44 228 47 297 38 267 82
259 69 -13 408 -114 488 -145 43 -17 108 -47 143 -67 41 -23 77 -36 101 -36
41 0 84 19 75 34 -4 5 -1 8 6 7 20 -5 66 72 94 155 40 120 58 262 51 397 -7
150 -13 169 -56 185 -19 7 -60 22 -90 33 -126 47 -143 52 -164 47 -16 -5 -17
-4 -7 3 11 8 4 13 -28 22 -24 6 -50 9 -58 6 -8 -3 -12 -2 -9 3 8 12 -265 80
-389 96 -160 21 -406 69 -372 73 29 4 36 19 12 28 -8 4 -13 10 -10 14 3 5 -7
11 -22 15 -16 3 -38 13 -49 23 l-22 17 47 110 c26 61 67 156 90 213 66 156 71
146 71 -137 l0 -238 48 -12 c26 -7 63 -16 82 -21 19 -5 37 -6 41 -2 3 4 14 68
23 142 10 74 44 308 77 519 32 211 66 438 74 504 15 123 19 275 6 228 -6 -22
-11 -15 -38 50 -45 105 -46 117 -17 154 13 17 24 36 24 40 0 5 -6 0 -14 -10
-38 -53 -71 34 -64 172 5 88 4 93 -19 115 -44 40 -82 151 -84 246 -1 26 -5 2
-9 -53 -5 -63 -14 -113 -25 -134 -9 -18 -18 -58 -20 -87 -3 -55 -34 -132 -60
-154 -21 -17 -85 -17 -96 0 -13 22 -11 97 6 165 20 83 19 102 -10 175 -14 36
-24 69 -22 75 3 5 10 -9 17 -32 7 -23 17 -40 21 -37 5 3 6 -3 2 -12 -4 -12 -3
-15 5 -10 8 4 10 2 6 -7 -3 -8 3 -22 12 -32 10 -9 25 -31 35 -49 9 -17 25 -33
35 -35 10 -2 24 -11 31 -20 11 -15 12 -15 13 1 0 9 -8 19 -18 22 -40 13 -225
376 -192 376 5 0 11 -13 15 -30 4 -16 11 -30 16 -30 6 0 7 -5 3 -12 -5 -7 -3
-8 6 -3 10 6 12 4 7 -9 -5 -14 -3 -17 8 -13 18 7 30 -9 13 -17 -7 -3 -4 -4 7
-1 13 3 26 -2 35 -15 16 -22 40 -27 40 -9 0 6 7 9 14 6 10 -4 13 -1 9 9 -6 17
8 18 27 2 13 -11 13 -11 2 2 -18 21 -15 34 6 19 13 -10 15 -10 5 0 -8 10 -8
21 2 45 7 17 17 64 20 104 l8 72 23 -67 c13 -38 23 -78 24 -90 0 -12 6 -26 13
-30 8 -4 22 -23 32 -40 11 -18 23 -33 27 -33 4 0 8 -8 9 -17 0 -10 3 -13 5 -6
3 6 -6 29 -20 50 -28 42 -103 224 -113 273 -11 56 -20 40 -16 -28 9 -127 -37
-251 -94 -252 -75 0 -243 327 -243 475 0 31 -7 69 -16 87 -40 77 -58 213 -34
257 5 10 11 31 14 47 5 28 51 79 91 101 15 9 18 21 16 69 -1 33 -8 84 -16 114
-10 38 -12 42 -8 15 12 -81 19 -175 12 -175 -3 0 -23 -11 -43 -25 -20 -13 -36
-20 -36 -16 0 5 -15 25 -32 43 -46 48 -86 142 -102 238 -11 65 -53 135 -129
215 -41 43 -73 83 -71 87 3 4 3 8 -1 8 -3 0 -8 -6 -10 -12z m302 -890 c-3 -7
-5 -2 -5 12 0 14 2 19 5 13 2 -7 2 -19 0 -25z m43 -115 c4 -18 4 -31 0 -28 -4
3 -13 24 -19 49 -6 24 -13 52 -16 62 -3 11 2 3 11 -16 9 -19 20 -50 24 -67z
m19 -167 c1 -27 21 -112 45 -190 23 -78 51 -172 60 -211 10 -38 26 -90 37
-114 19 -44 27 -147 10 -137 -5 3 -9 23 -9 43 0 21 -6 52 -12 68 -43 110 -137
456 -150 548 -10 64 -1 112 11 67 4 -14 7 -47 8 -74z m81 -215 c-9 -14 -10
-13 -9 4 1 11 -8 40 -19 65 -12 25 -21 52 -21 60 0 8 13 -14 29 -49 22 -47 27
-67 20 -80z m60 -166 c0 -5 -5 -3 -10 5 -5 8 -10 20 -10 25 0 6 5 3 10 -5 5
-8 10 -19 10 -25z m253 -168 c6 4 8 0 4 -10 -8 -20 26 -83 42 -79 6 1 11 -5
11 -13 0 -8 7 -15 15 -15 21 0 20 -4 -20 -66 -32 -50 -38 -55 -68 -52 l-32 3
-3 79 c-3 70 -1 80 18 93 11 8 20 20 20 26 0 7 -8 3 -17 -8 l-16 -20 8 20 c4
11 10 29 13 40 3 11 7 14 10 7 2 -7 9 -9 15 -5z m-259 -202 c-6 -89 -5 -97 14
-115 34 -32 87 -26 128 12 19 18 34 39 34 46 0 8 6 12 13 9 6 -2 11 -16 11
-30 -1 -21 3 -27 20 -27 42 0 65 12 77 41 6 16 13 28 16 26 2 -3 8 -33 14 -68
5 -36 17 -69 25 -76 13 -10 15 -24 9 -84 -9 -86 -35 -155 -63 -163 -70 -23
-107 50 -105 204 1 52 -1 89 -4 83 -2 -7 -8 -13 -13 -13 -5 0 -10 6 -13 13 -2
6 -2 2 -1 -10 2 -12 -1 -25 -8 -29 -6 -4 -8 -3 -5 3 4 6 1 16 -6 21 -10 9 -13
5 -13 -15 1 -22 -4 -27 -28 -30 -65 -9 -112 33 -122 110 -6 41 12 187 23 187
2 0 1 -43 -3 -95z m380 -401 c3 -8 2 -12 -4 -9 -6 3 -10 10 -10 16 0 14 7 11
14 -7z m64 -90 c8 5 12 -3 12 -23 0 -16 -5 -33 -11 -36 -5 -4 -8 -19 -4 -33 6
-32 -19 -169 -65 -342 l-19 -75 7 150 c8 170 7 175 -2 305 -3 52 -4 89 0 82 8
-18 24 -4 18 16 -3 9 7 2 24 -17 17 -20 34 -31 40 -27z m-91 -546 c-3 -7 -5
-2 -5 12 0 14 2 19 5 13 2 -7 2 -19 0 -25z m-16 -59 c-6 -16 -10 -18 -10 -7
-1 22 12 55 16 42 2 -6 -1 -22 -6 -35z m-21 -105 c-7 -30 -14 -53 -17 -51 -2
3 1 34 8 68 7 35 14 58 17 51 2 -6 -2 -37 -8 -68z m-20 -79 c0 -8 -4 -15 -10
-15 -5 0 -7 7 -4 15 4 8 8 15 10 15 2 0 4 -7 4 -15z m-306 -74 c3 -5 -1 -11
-9 -14 -9 -4 -12 -1 -8 9 6 16 10 17 17 5z m283 -43 c-2 -13 -4 -5 -4 17 -1
22 1 32 4 23 2 -10 2 -28 0 -40z m-577 -24 c17 -15 37 -39 45 -55 17 -32 20
-83 5 -74 -5 3 -10 17 -10 30 0 30 -51 81 -91 90 -45 10 -94 -2 -129 -32 -36
-30 -47 -27 -24 6 45 64 148 82 204 35z m277 4 c-3 -8 -6 -5 -6 6 -1 11 2 17
5 13 3 -3 4 -12 1 -19z m-333 -79 c48 1 48 1 44 -29 -4 -26 -1 -30 17 -30 29
0 90 -42 90 -62 0 -9 8 -25 18 -35 20 -23 23 -38 5 -27 -7 5 -3 -5 10 -20 12
-16 20 -32 17 -36 -3 -6 -110 14 -110 20 0 0 -1 -10 -2 -22 -7 -65 -16 -108
-24 -108 -4 0 -6 -6 -3 -13 6 -16 -24 -90 -34 -83 -4 2 -7 -10 -7 -27 0 -20
-5 -31 -12 -29 -7 1 -13 -2 -13 -8 0 -5 5 -10 11 -10 7 0 5 -10 -5 -25 -9 -13
-16 -39 -16 -57 0 -25 -3 -29 -12 -20 -20 20 -30 14 -15 -9 8 -11 12 -29 10
-40 -6 -20 -6 -20 -25 1 -21 23 -39 25 -56 8 -9 -9 -12 -8 -12 4 0 9 9 23 20
31 11 8 17 16 14 20 -3 3 0 23 7 44 15 44 16 47 18 68 0 9 11 20 24 25 19 7
19 9 3 9 -16 1 -18 7 -13 42 3 22 13 47 24 54 17 13 17 14 -5 10 -13 -2 -34 1
-47 7 -18 8 -28 8 -39 -1 -10 -8 -16 -9 -21 -1 -11 18 6 50 28 51 16 1 17 3 5
6 -28 7 -31 35 -6 55 l23 18 -22 0 c-27 0 -31 30 -8 54 19 18 19 26 2 26 -8 0
-22 9 -32 20 -18 19 -17 21 5 40 13 11 30 20 39 21 9 0 11 3 4 5 -14 6 -64
-19 -82 -40 -15 -18 -41 -10 -41 14 0 9 11 29 25 44 19 20 33 26 53 23 15 -2
21 -2 14 0 -7 3 -9 9 -6 15 4 6 22 7 48 3 22 -4 63 -7 90 -6z m593 -131 c-3
-7 -5 -2 -5 12 0 14 2 19 5 13 2 -7 2 -19 0 -25z m-1073 -25 c4 -9 2 -21 -4
-27 -7 -7 -10 -5 -10 7 0 9 -7 17 -16 17 -8 0 -12 5 -9 10 10 16 32 12 39 -7z
m-1349 -31 c-3 -3 -11 0 -18 7 -9 10 -8 11 6 5 10 -3 15 -9 12 -12z m1625 -18
c0 -12 -6 -15 -22 -10 -13 3 -30 6 -38 7 -8 0 -4 5 10 9 39 13 50 11 50 -6z
m-703 -10 c-3 -3 -12 -4 -19 -1 -8 3 -5 6 6 6 11 1 17 -2 13 -5z m-644 -11
c-7 -2 -19 -2 -25 0 -7 3 -2 5 12 5 14 0 19 -2 13 -5z m166 -7 c-2 -2 -40 -6
-84 -8 -44 -3 -69 -2 -55 2 25 8 147 13 139 6z m398 -2 c-3 -3 -12 -4 -19 -1
-8 3 -5 6 6 6 11 1 17 -2 13 -5z m100 -10 c-3 -3 -12 -4 -19 -1 -8 3 -5 6 6 6
11 1 17 -2 13 -5z m197 -31 c-3 -21 -15 -56 -25 -78 l-19 -40 4 35 c12 98 18
120 32 120 12 0 13 -8 8 -37z m-1314 23 c0 -3 -4 -8 -10 -11 -5 -3 -10 -1 -10
4 0 6 5 11 10 11 6 0 10 -2 10 -4z m83 -3 c-7 -2 -19 -2 -25 0 -7 3 -2 5 12 5
14 0 19 -2 13 -5z m737 -8 c-1 -5 7 -13 17 -17 17 -7 17 -8 0 -5 -10 1 -17 6
-17 11 1 5 -4 13 -12 18 -11 8 -11 9 0 6 8 -2 13 -8 12 -13z m-447 -2 c-7 -2
-21 -2 -30 0 -10 3 -4 5 12 5 17 0 24 -2 18 -5z m747 -13 c0 -5 -7 -7 -15 -4
-8 4 -15 8 -15 10 0 2 7 4 15 4 8 0 15 -4 15 -10z m-630 -10 c11 -8 7 -9 -15
-4 -37 8 -45 14 -19 14 10 0 26 -5 34 -10z m45 -10 c3 -5 -1 -10 -9 -10 -9 0
-16 5 -16 10 0 6 4 10 9 10 6 0 13 -4 16 -10z m-521 -39 c-2 -3 -12 3 -22 13
-16 17 -16 18 5 5 12 -7 20 -15 17 -18z m1076 -15 c0 -2 -9 -2 -20 1 -11 3
-20 9 -20 15 0 5 9 4 20 -2 11 -6 20 -12 20 -14z m-545 4 c8 -13 -5 -13 -25 0
-13 8 -13 10 2 10 9 0 20 -4 23 -10z m-162 -7 c-7 -2 -19 -2 -25 0 -7 3 -2 5
12 5 14 0 19 -2 13 -5z m44 1 c-3 -3 -12 -4 -19 -1 -8 3 -5 6 6 6 11 1 17 -2
13 -5z m187 -19 c11 -8 15 -15 10 -15 -6 0 -19 7 -30 15 -10 8 -14 14 -9 14 6
0 19 -6 29 -14z m86 5 c0 -5 -2 -10 -4 -10 -3 0 -8 5 -11 10 -3 6 -1 10 4 10
6 0 11 -4 11 -10z m215 -29 c-8 -17 -18 -31 -21 -31 -3 0 -3 4 0 9 3 4 10 21
16 36 6 15 13 25 16 22 3 -3 -2 -19 -11 -36z m-566 3 c14 -12 -19 -1 -35 12
-18 14 -18 14 6 3 14 -6 27 -13 29 -15z m1562 -60 c-36 -102 -56 -97 -25 7 20
66 24 73 36 61 6 -6 2 -31 -11 -68z m-1691 40 c0 -2 -9 0 -20 6 -11 6 -20 13
-20 16 0 2 9 0 20 -6 11 -6 20 -13 20 -16z m365 16 c3 -6 -1 -7 -9 -4 -18 7
-21 14 -7 14 6 0 13 -4 16 -10z m-240 -38 c-3 -3 -11 0 -18 7 -9 10 -8 11 6 5
10 -3 15 -9 12 -12z m1045 14 c0 -2 -7 -7 -16 -10 -8 -3 -12 -2 -9 4 6 10 25
14 25 6z m-833 -32 c-3 -3 -12 -4 -19 -1 -8 3 -5 6 6 6 11 1 17 -2 13 -5z
m960 -20 c-3 -3 -12 -4 -19 -1 -8 3 -5 6 6 6 11 1 17 -2 13 -5z m-984 -11 c-7
-2 -21 -2 -30 0 -10 3 -4 5 12 5 17 0 24 -2 18 -5z m70 0 c-7 -2 -21 -2 -30 0
-10 3 -4 5 12 5 17 0 24 -2 18 -5z m564 -25 c-13 -57 -38 -143 -44 -148 -10
-9 8 145 19 158 17 20 31 14 25 -10z m-710 6 c-3 -3 -12 -4 -19 -1 -8 3 -5 6
6 6 11 1 17 -2 13 -5z m1162 -7 c30 -13 32 -27 5 -27 -15 0 -63 39 -48 40 7 0
26 -6 43 -13z m-1219 -7 c18 -12 2 -12 -25 0 -13 6 -15 9 -5 9 8 0 22 -4 30
-9z m1765 0 c3 -5 1 -10 -4 -10 -6 0 -11 5 -11 10 0 6 2 10 4 10 3 0 8 -4 11
-10z m-1598 -6 c-3 -3 -12 -4 -19 -1 -8 3 -5 6 6 6 11 1 17 -2 13 -5z m2366
-11 c-7 -2 -19 -2 -25 0 -7 3 -2 5 12 5 14 0 19 -2 13 -5z m-1228 -13 c3 -5 2
-10 -4 -10 -5 0 -13 5 -16 10 -3 6 -2 10 4 10 5 0 13 -4 16 -10z m525 0 c8 -5
11 -10 5 -10 -5 0 -17 5 -25 10 -8 5 -10 10 -5 10 6 0 17 -5 25 -10z m-153
-42 c-3 -7 -5 -2 -5 12 0 14 2 19 5 13 2 -7 2 -19 0 -25z m-1422 12 c3 -5 -1
-10 -9 -10 -9 0 -16 5 -16 10 0 6 4 10 9 10 6 0 13 -4 16 -10z m2855 -101 c0
-6 -4 -7 -10 -4 -5 3 -10 11 -10 16 0 6 5 7 10 4 6 -3 10 -11 10 -16z m-217 4
c-7 -2 -19 -2 -25 0 -7 3 -2 5 12 5 14 0 19 -2 13 -5z m-1353 -6 c0 -11 -41
-119 -54 -143 l-15 -29 5 35 c12 76 35 140 49 140 8 0 15 -2 15 -3z m1458 -4
c-10 -2 -26 -2 -35 0 -10 3 -2 5 17 5 19 0 27 -2 18 -5z m-1858 -44 c0 -5 -4
-9 -8 -9 -5 0 -9 7 -9 15 0 8 4 12 9 9 4 -3 8 -9 8 -15z m1573 -16 c-7 -2 -19
-2 -25 0 -7 3 -2 5 12 5 14 0 19 -2 13 -5z m-798 -33 c13 -5 14 -9 5 -9 -8 0
-24 4 -35 9 -13 5 -14 9 -5 9 8 0 24 -4 35 -9z m-60 -30 c3 -6 -1 -7 -9 -4
-18 7 -21 14 -7 14 6 0 13 -4 16 -10z m182 -46 c-3 -3 -12 -4 -19 -1 -8 3 -5
6 6 6 11 1 17 -2 13 -5z m833 -54 c-8 -5 -24 -9 -35 -9 -16 1 -16 2 5 9 35 11
48 11 30 0z m-725 -20 c13 -6 15 -9 5 -9 -8 0 -22 4 -30 9 -18 12 -2 12 25 0z
m270 -10 c3 -6 -5 -10 -19 -10 -14 0 -28 5 -31 10 -3 6 5 10 19 10 14 0 28 -4
31 -10z m405 -4 c-14 -8 -29 -12 -33 -9 -12 8 14 23 38 22 18 0 17 -1 -5 -13z
m-585 -16 c3 -6 -1 -7 -9 -4 -18 7 -21 14 -7 14 6 0 13 -4 16 -10z m303 3
c-16 -2 -40 -2 -55 0 -16 2 -3 4 27 4 30 0 43 -2 28 -4z m-161 -19 c-3 -3 -12
-4 -19 -1 -8 3 -5 6 6 6 11 1 17 -2 13 -5z"/>
<path d="M3976 3257 c3 -10 9 -15 12 -12 3 3 0 11 -7 18 -10 9 -11 8 -5 -6z"/>
<path d="M3585 1808 c3 -16 2 -28 -2 -28 -5 0 -8 -18 -9 -41 0 -22 -5 -43 -10
-47 -6 -4 -8 -31 -4 -67 l5 -60 8 52 c7 49 9 52 40 56 l32 4 -32 1 c-39 2 -45
28 -10 42 12 5 16 9 9 9 -7 1 -12 12 -11 29 1 15 -4 38 -10 52 l-11 25 5 -27z"/>
<path d="M3671 1816 c2 -2 20 -11 39 -20 l35 -17 -24 21 c-13 11 -30 20 -39
20 -8 0 -13 -2 -11 -4z"/>
<path d="M3776 5315 c24 -73 53 -145 48 -115 -4 19 -17 58 -30 85 -14 28 -21
41 -18 30z"/>
<path d="M3831 5144 c0 -11 3 -14 6 -6 3 7 2 16 -1 19 -3 4 -6 -2 -5 -13z"/>
<path d="M3846 5080 c4 -19 11 -44 15 -55 6 -14 7 -9 3 15 -4 19 -11 44 -15
55 -6 14 -7 9 -3 -15z"/>
<path d="M3811 4774 c0 -11 3 -14 6 -6 3 7 2 16 -1 19 -3 4 -6 -2 -5 -13z"/>
<path d="M4050 4766 c0 -2 8 -10 18 -17 15 -13 16 -12 3 4 -13 16 -21 21 -21
13z"/>
<path d="M3842 4722 c-23 -22 -42 -43 -42 -47 0 -5 12 4 28 18 15 15 38 35 52
46 14 11 20 20 14 21 -6 0 -29 -17 -52 -38z"/>
<path d="M3904 4688 l-19 -23 23 19 c21 18 27 26 19 26 -2 0 -12 -10 -23 -22z"/>
<path d="M4140 4655 c13 -14 26 -25 28 -25 3 0 -5 11 -18 25 -13 14 -26 25
-28 25 -3 0 5 -11 18 -25z"/>
<path d="M3873 4600 c0 -25 2 -35 4 -22 2 12 2 32 0 45 -2 12 -4 2 -4 -23z"/>
<path d="M3891 4454 c0 -11 3 -14 6 -6 3 7 2 16 -1 19 -3 4 -6 -2 -5 -13z"/>
<path d="M3901 4420 c0 -8 4 -24 9 -35 5 -13 9 -14 9 -5 0 8 -4 24 -9 35 -5
13 -9 14 -9 5z"/>
<path d="M3940 4275 c0 -5 5 -17 10 -25 5 -8 10 -10 10 -5 0 6 -5 17 -10 25
-5 8 -10 11 -10 5z"/>
<path d="M4142 4231 c-6 -18 -7 -29 -2 -26 6 4 10 14 10 23 1 10 9 3 20 -18
11 -19 19 -30 19 -25 0 6 -8 25 -18 44 l-18 34 -11 -32z"/>
<path d="M3960 4225 c0 -5 5 -17 10 -25 5 -8 10 -10 10 -5 0 6 -5 17 -10 25
-5 8 -10 11 -10 5z"/>
<path d="M4372 3930 c0 -19 2 -27 5 -17 2 9 2 25 0 35 -3 9 -5 1 -5 -18z"/>
<path d="M4178 3890 c-3 -14 -9 -34 -13 -45 -6 -17 -5 -17 9 3 10 12 16 32 14
45 -3 21 -4 21 -10 -3z"/>
<path d="M3902 3605 c0 -16 2 -22 5 -12 2 9 2 23 0 30 -3 6 -5 -1 -5 -18z"/>
<path d="M4337 3503 c-4 -3 -7 -11 -7 -17 0 -6 5 -5 12 2 6 6 9 14 7 17 -3 3
-9 2 -12 -2z"/>
<path d="M2407 3470 c-4 -14 -7 -34 -7 -45 0 -17 2 -18 11 -5 7 11 8 4 5 -25
-5 -40 -5 -40 5 -8 8 21 8 44 2 70 -8 36 -9 36 -16 13z"/>
<path d="M4380 3150 c0 -5 5 -10 11 -10 5 0 7 5 4 10 -3 6 -8 10 -11 10 -2 0
-4 -4 -4 -10z"/>
<path d="M2481 3120 c0 -8 4 -22 9 -30 12 -18 12 -2 0 25 -6 13 -9 15 -9 5z"/>
<path d="M2500 3069 c0 -4 7 -22 15 -40 8 -19 14 -27 14 -19 0 14 -28 72 -29
59z"/>
<path d="M2541 2955 c0 -5 6 -30 13 -55 8 -25 15 -36 15 -25 -1 21 -27 98 -28
80z"/>
<path d="M2581 2804 c0 -11 3 -14 6 -6 3 7 2 16 -1 19 -3 4 -6 -2 -5 -13z"/>
<path d="M2601 2735 c-1 -20 26 -98 31 -89 2 5 -3 29 -13 54 -10 25 -18 41
-18 35z"/>
<path d="M1688 2143 c7 -3 16 -2 19 1 4 3 -2 6 -13 5 -11 0 -14 -3 -6 -6z"/>
<path d="M1748 2133 c6 -2 18 -2 25 0 6 3 1 5 -13 5 -14 0 -19 -2 -12 -5z"/>
<path d="M1798 2123 c6 -2 18 -2 25 0 6 3 1 5 -13 5 -14 0 -19 -2 -12 -5z"/>
<path d="M1868 2113 c7 -3 16 -2 19 1 4 3 -2 6 -13 5 -11 0 -14 -3 -6 -6z"/>
<path d="M1918 2103 c7 -3 16 -2 19 1 4 3 -2 6 -13 5 -11 0 -14 -3 -6 -6z"/>
<path d="M2068 2073 c7 -3 16 -2 19 1 4 3 -2 6 -13 5 -11 0 -14 -3 -6 -6z"/>
<path d="M2108 2063 c6 -2 18 -2 25 0 6 3 1 5 -13 5 -14 0 -19 -2 -12 -5z"/>
<path d="M2158 2053 c6 -2 18 -2 25 0 6 3 1 5 -13 5 -14 0 -19 -2 -12 -5z"/>
<path d="M2328 2023 c7 -3 16 -2 19 1 4 3 -2 6 -13 5 -11 0 -14 -3 -6 -6z"/>
<path d="M2370 2016 c0 -2 9 -6 20 -9 11 -3 18 -1 14 4 -5 9 -34 13 -34 5z"/>
<path d="M2853 2003 c9 -2 25 -2 35 0 9 3 1 5 -18 5 -19 0 -27 -2 -17 -5z"/>
<path d="M2967 1932 c-10 -10 -17 -24 -17 -30 0 -7 -10 -12 -22 -12 -21 -1
-21 -2 -5 -11 23 -14 22 -39 -3 -39 -11 0 -20 5 -20 12 0 6 -3 8 -7 5 -3 -4 2
-16 12 -27 16 -18 17 -22 1 -54 -9 -19 -16 -40 -16 -48 1 -22 70 125 70 150 0
14 8 26 23 32 12 5 16 9 8 9 -7 1 -11 7 -7 16 7 20 3 19 -17 -3z"/>
<path d="M2078 1923 c7 -3 16 -2 19 1 4 3 -2 6 -13 5 -11 0 -14 -3 -6 -6z"/>
<path d="M4338 1563 c7 -3 16 -2 19 1 4 3 -2 6 -13 5 -11 0 -14 -3 -6 -6z"/>
<path d="M4418 1543 c7 -3 16 -2 19 1 4 3 -2 6 -13 5 -11 0 -14 -3 -6 -6z"/>
<path d="M4498 1523 c7 -3 16 -2 19 1 4 3 -2 6 -13 5 -11 0 -14 -3 -6 -6z"/>
<path d="M4538 1513 c7 -3 16 -2 19 1 4 3 -2 6 -13 5 -11 0 -14 -3 -6 -6z"/>
<path d="M4578 1503 c7 -3 16 -2 19 1 4 3 -2 6 -13 5 -11 0 -14 -3 -6 -6z"/>
<path d="M4618 1493 c7 -3 16 -2 19 1 4 3 -2 6 -13 5 -11 0 -14 -3 -6 -6z"/>
<path d="M4658 1483 c7 -3 16 -2 19 1 4 3 -2 6 -13 5 -11 0 -14 -3 -6 -6z"/>
<path d="M4710 1470 c8 -5 22 -9 30 -9 10 0 8 3 -5 9 -27 12 -43 12 -25 0z"/>
<path d="M4775 1450 c27 -12 43 -12 25 0 -8 5 -22 9 -30 9 -10 0 -8 -3 5 -9z"/>
</g>
</svg>
